<?xml version="1.0" encoding="utf-8"?>
<!-- Generator: Adobe Illustrator 15.0.0, SVG Export Plug-In  -->
<!DOCTYPE svg PUBLIC "-//W3C//DTD SVG 1.1//EN" "http://www.w3.org/Graphics/SVG/1.1/DTD/svg11.dtd" [
	<!ENTITY ns_flows "http://ns.adobe.com/Flows/1.0/">
]>
<svg version="1.1"
	 xmlns="http://www.w3.org/2000/svg" xmlns:xlink="http://www.w3.org/1999/xlink" xmlns:a="http://ns.adobe.com/AdobeSVGViewerExtensions/3.0/"
	 x="0px" y="0px" width="701px" height="1048px" viewBox="0.001 0 701 1048"
	 overflow="visible" enable-background="new 0.001 0 701 1048" xml:space="preserve">
<defs>
</defs>
<path fill="#A3A3A3" d="M337.095,0c2.601,0.1,10,2,11.2,4c1.899,2.2,0.5,5-0.7,6.8c-2,0.6-4.101,1.2-6.101,1.8
	c-0.5,1.7-0.699,3.1-0.399,5c2.2-0.1,4.301-0.2,6.5-0.4c8.399,3,12.399,27.7,17.3,36c1.6-0.1,1.899-0.3,2.899-0.7
	c-0.399-8.9-4.101-11.3,0.399-18.7c5.2-1.7,8.899-0.1,11.9,3.2c-0.2,2.9-0.5,5.8-0.7,8.6c3.601,1.7,9.8,0.9,13.7,1.8
	c0.7,1.1,1.399,2.2,2.2,3.2c-0.5,1.3-1,2.6-1.399,4c0.1,0.2,0.2,0.5,0.4,0.7c2.8-0.5,5.5-1,8.3-1.4c3,0.6,4.1,3,6.5,4
	c5.2,2.2,14.399-0.7,13,7.2c-0.399,0.1-0.7,0.2-1.101,0.4c-2.899,1.2-7.601-0.5-11.199,0.4c0,0.5,0,1,0,1.4c1.8,0.4,2.8,0.8,3.6,2.2
	c0,1.9,0,3.8,0,5.8c8.101,3.4,9.101-11.4,19.101-8.6c3,0.3,4.601,1.8,4.7,5c-1.601,3.4-4.2,4.8-5.8,8.3c6,4.4,9.6,6.5,11.2,15.5
	c0.7,3.8-1.199,5.3,0.399,8.6c1.2,2.7,5.801,4.7,4.7,8.6c-0.2,0.5-0.5,1-0.7,1.4c-6.399,0-7.5-3.7-11.899-5.8
	c-0.699,0.1-1.399,0.2-2.199,0.4c-1.2,2.5-1.301,5.8,0,8.3c0.1,0,0.2,0,0.4,0c10.899-4.3,7.6,4.8,10.8,12.6c2,2.5,4.1,5,6.1,7.6
	c1.101,3,2.2,6,3.2,9c2.699,4.7,7.9,8.7,11.9,12.2c0,2.3-0.301,2.7-1.101,4c-3,0.6-8.601,0.8-8.3,4.7c0.1,1.9,2.7,2.9,1.8,6.1
	c-1,1.6-1.899,3.1-2.899,4.7c0.199,0.1,0.5,0.2,0.699,0.4c2.2,0.2,4.301,0.5,6.5,0.7c0.4,0.6,0.7,1.2,1.101,1.8
	c1.101,3.6-0.101,7.9-1.101,11.5c-2,1.3-4.6,1.9-7.199,2.9c0.199,0.4,0.5,0.7,0.699,1.1c3.4,1,8.2,2.9,10.801,3.6
	c4.101,1.1,6.3-1,9.699,0.7c1.4,1.8,2.9,3.6,4.301,5.4c2.8,0.8,5.5,1.7,8.3,2.5c5.5,3.7,4.3,15.4,19.1,11.5
	c-0.399-5.4-4.399-7.2-5.399-12.6c0.101-3.2,0.199-6.5,0.399-9.7c-0.399-1.5-1.899-2.2-1.399-5c0.5-2.5,1-5,1.399-7.6
	c-1.601-6-8-7.6-10.399-13c0.5-1,1-1.9,1.399-2.9c5.7-1.2,15.601,5.8,18.4,10.1c1.301,2.4,2.6,4.8,4,7.2
	c2.801,1.9,6.601-0.1,9.399,1.8c0,0.1,0,0.2,0,0.4c0,4.4-2,6.1-3.6,9c1.899,1.2,3.8,2.4,5.8,3.6c0.2,2.8,0.5,5.5,0.7,8.3
	c0.6,2.1,2.7,3.5,3.2,6.1c-0.101,2.5-0.199,5-0.399,7.6c1,1.6,1.9,3.1,2.9,4.7c-0.399,3.6-0.699,7.2-1.1,10.8c1,2.9,4.399,3.2,5,7.2
	c-1,1.3-1.9,2.6-2.9,4c0.5,1.4,0,0.7,1.1,1.4c3,1.4,6.4,0.6,7.9,3.6c0.101,1.1,0.2,2.2,0.4,3.2c-1.301,1-2.601,1.9-4,2.9
	c0.1,0.2,0.199,0.5,0.399,0.7c1,0.4,1.9,0.7,2.9,1.1c1.601-1.6,2.7-2.5,6.101-2.5c3.699,1.7,5.2,4.4,8.3,6.5c2.899,2,6,2.5,9.4,4.3
	c7.2,4,14,10.8,22,14c3.7,0.6,7.4,1.2,11.2,1.8c6.601,2.1,14.5,7.4,25.2,5.4c12.5-2.4,14.3-13,20.899-21.2
	c2.101-2.7,5.301-2.4,8.301-4.3c3.199-2.1,4.3-6.7,8.3-8.3c5.2-2.1,31.399,7.8,35.6,10.4c3.601,12.1-7.1,11.6-10.1,19.1
	c-0.2,2.3-0.5,4.6-0.7,6.8c-2,5.1-5.3,12-6.5,17.6c-1.6,7.8,4.2,12.7,1.1,19.8c-1.5,3.4-9,15.8-11.899,17.6
	c-2.601,1.7-8,0.4-10.801,2.2c-4.8,3-6.8,15.8-7.601,22.7c1.601,1.8,5.1,5.1,4,8.3c-0.6,3.5-3.6,3.3-4.699,6.1
	c-1.601,4.3-1,7.7-3.2,10.8c-2-0.1-2.101-0.4-3.199-1.1c-0.801-6.5,3.6-14.8-0.4-20.2c-2.8-3.9-13.399-1.9-18.399-1.1
	c-9.199,1.5-17.8,0.2-24.5,4.7c-5.5,3.7-6.199,10.6-9.699,16.2c-2.2,2.4-4.301,4.8-6.5,7.2c1.199,4.2,2.399,8.4,3.6,12.6
	c17.4,4.2,2,26.3-1.8,34.602c-1.3,4-2.601,7.898-4,11.899c-1.601,3.8-4.899,2.4-7.2,5c-2.899,6.5-5.8,13-8.6,19.4
	c-2.4,3.8-8.2,4.1-10.801,7.898c-5.3,7.9-7.899,16.102-12.601,24.801c-2.6,3.398-5.3,6.698-7.899,10.1c-2.8,6-3.101,11.5-6.8,16.2
	c-2.899,1.898-5.801,3.8-8.601,5.8c-3.2,3.5-6.5,7-9.7,10.4c-3.199,1.1-6.5,2.198-9.699,3.198c-0.101,1.602-0.2,3.102-0.399,4.7
	c-3.9,2.8-8.601,6.3-14.4,5c-0.6-0.7-1.199-1.398-1.8-2.2c0.2-3.5,1.5-3.3,2.2-6.1c-8.4-17.3-16-4.7-26.301-12.6
	c1.101-1.802,2.2-3.602,3.2-5.4c-0.5-1-1-1.9-1.399-2.9c-0.801,0-1.7,0-2.5,0c-3.801,1.9-3.4,5.102-5.4,8.602
	c-0.398,0.1-0.699,0.2-1.1,0.398c-7.4-1.1-6.301-8.5-2.9-13c5.301-7.1,13.7-12.5,18.4-20.198c0.8-2.602,1.699-5.302,2.5-7.9
	c2.899-6.8,6.1-12.3,9-20.2c1.8-4.8,7.1-20.1,4.699-24.5c-6.399-2.1-9.399-14.3-13-19.398c-4-5.802-9.601-12.602-16.601-15.5
	c-13.8-5.7-24.1-0.602-27.399-18c-8.199-4-24.699-1.9-29.5-9.4c-1-3.4-1.899-6.7-2.899-10.1c-1.3-3.8-3.5-9.6-0.7-13.7l24.102-16.9
	c0.1-0.1,0.199-0.2,0.398-0.4c7.4-2.4,17.7-2.9,21.602-8.6c4.3-6.4,7.5-31.3,9.398-40.3c0.102-3.8,0.2-7.7,0.4-11.5
	c2.3-8,11.399-7.7,13.3-16.6c-2-0.6-4.101-1.2-6.101-1.8c-1.101-3.6-2.5-9.9,0.399-12.2c1.2-2.4,3-2.1,5.4-3.2
	c-1.801-1.6-3.601-3.1-5.4-4.7c-4-7.4-3.6-25.9-6.8-34.6c-1.101-3-5.3-10-2.2-12.2c3.4-0.8,5.4,3.3,9.4,2.9
	c-0.301-6.5,1.899-6,5-9.4c-0.5-1.6-1.301-3.1-2.5-4c-8-4.4-14.2,1-18.4-0.4c-6.699-2.8-11.1-22.1-14.399-29.5
	c-2.101-4.8-5.699-8.6-9-12.2c0-2.2,0.301-2.4,1.101-3.6c0.399-0.1,0.7-0.2,1.101-0.4c6.899,1.1,9.301,7.4,13.301,11.5
	c2.8-0.2,3.898-1.2,5.398-2.5c-0.199-4-2.3-7.3-4-10.1c-2.8-0.2-5.5-0.5-8.3-0.7c-0.601-0.7-1.2-1.4-1.8-2.2
	c0.1-0.8,0.199-1.7,0.399-2.5c1.699-3,6.601-2.1,9-4.3c0-0.4,0-0.7,0-1.1c-8.2-3.8-4.801-10.6-11.5-12.6c0,0.4,0,0.7,0,1.1
	c1.199,2.4,2.4,4.6,2.2,7.6c-0.398,0.2-0.699,0.5-1.1,0.7c-0.601,0-1.2,0-1.801,0c-1.699-0.7-13.399-10.3-14.399-11.9
	c-2.399-3.6-2.601-9.5-6.8-11.2c-0.101,0.2-0.2,0.5-0.4,0.7c4.301,10.5,13.2,15.8,16.9,26.6c-0.601,1.3-1.2,2.6-1.8,4
	c-10.801,2.5-12.102-7.6-15.5-14.8c-4.301-9-11.301-15.8-16.602-23.8c-2.398-5.2-4.8-10.3-7.199-15.5
	c-2.101-3.6-5.301-4.9-5.801-10.4c2.2-3,5-3.9,8.301-5.8c-0.101-0.7-0.2-1.4-0.399-2.2c-0.7-0.8-1.4-1.7-2.2-2.5
	c-2.7,0-3.8,0.5-5.399,1.4c-0.199,2.8-1,3.8-2.199,5.4c-0.602,0.1-1.2,0.2-1.801,0.4c-3.899-1.2-5.5-3-5.399-8.3
	c-7.101-0.9-2.5-4.9-4.3-6.1c-1.7,0-3.4,0-5,0c-10.602-5.2-1.602-13.5,4-16.6c-0.301-3.9-15.102-29-17.602-31.3
	c-7.6-6.9-21.398-9.6-17.6-25.6c0.2-0.1,0.5-0.2,0.7-0.4c4.898,0.4,4.6,3.8,9.399,4.3c0.5-0.4,1-0.7,1.4-1.1
	C334.896,4.3,336,2.2,337.1,0H337.095z"/>
<path fill="#A3A3A3" d="M499.095,134.3c3.2,0.5,8.399,5.1,9.399,7.6c-0.1,2.2-0.199,4.3-0.399,6.5c0.899,3.4,7.399,8.1,3.6,13
	c-0.399,0.5-0.7,1-1.101,1.4c-2.601,0.6-4.699,0.7-7.199,0c-2.7-4-3.9-5.8-8.301-8.3c-1.699-5.4-0.601-15.6,2.5-19.8
	c0.501-0.2,1.006-0.3,1.506-0.4H499.095z"/>
<path fill="#A3A3A3" d="M479.995,144c2.2,0.5,2.7,1.2,4,2.5c-0.1,1-0.199,1.9-0.399,2.9c-0.699,0.8-1.399,1.7-2.199,2.5
	c-0.7,0-1.4,0-2.2,0c-0.601-0.6-1.2-1.2-1.8-1.8c-0.7-1.2-0.7-2.4-0.4-4c0.5-0.6,1-1.2,1.4-1.8c0.599-0.1,1.104-0.2,1.604-0.3
	H479.995z"/>
<path fill="#A3A3A3" d="M465.195,164.2c0.8,0.1,1.7,0.2,2.5,0.4c0.7,0.6,1.4,1.2,2.2,1.8c0,2.3-0.301,3.1-1.801,4
	c-1.199,0-2.399,0-3.601,0c-0.399-0.7-0.699-1.4-1.1-2.2c0.301-2.2,0.906-2.7,1.806-4H465.195z"/>
<path fill="#A3A3A3" d="M521.396,175.7c0.699,0.1,1.4,0.2,2.2,0.4c0.7,0.6,1.399,1.2,2.2,1.8c0,2.8-0.399,3.2-1.399,4.7
	c-0.101,0-0.2,0-0.4,0c-2-0.1-2.1-0.4-3.199-1.1c-0.4-1.8-0.801-2.7,0-4.3c0.099-0.6,0.402-1,0.603-1.5H521.396z"/>
<path fill="#A3A3A3" d="M479.295,189c5.699-0.2,9.899-0.2,12.6,2.5c-0.101,1.2-0.2,2.4-0.4,3.6c-1.899,4.2-10.5,4.7-15.1,3.6
	c-0.4-2-1.301-5-0.4-7.2c0.901-1.7,1.705-1.6,3.306-2.5H479.295z"/>
<path fill="#A3A3A3" d="M612.095,254.2c1.7,0.2,3.399,0.5,5,0.7c0.801,1.5,1.2,2.1,1.399,4.3c-0.399,0.6-0.699,1.2-1.1,1.8
	c-2.601,0.8-4.4,1-7.2,0.4c-0.5-0.5-1-1-1.399-1.4c0-0.8,0-1.7,0-2.5c0.5-0.8,1-1.7,1.399-2.5c0.701-0.4,1.306-0.6,1.905-0.8
	H612.095z"/>
<path d="M468.795,445c0,0.6,0,1.2,0,1.8c0.199-0.1,0.5-0.2,0.699-0.398c0-0.102,0-0.2,0-0.4C469.095,445,469.6,445.6,468.8,445
	H468.795z"/>
<path fill="#A3A3A3" d="M18.096,950c-4.2,0.5-5.9,5.2-9.7,4c-0.399-0.2-0.7-0.5-1.101-0.7c0.399-4.7,3.5-7.1,5.801-10.1
	c0-0.102,0-0.2,0-0.4c-4.7,0.602-5.7,3.8-8.601,6.102c-0.801-0.2-1.7-0.5-2.5-0.7c-0.7-4.8-4.5-14.8,0.699-16.602
	c2.801,0.2,5.5,0.5,8.301,0.7c4.199-0.8,4.3-3.8,8.601-4.3c-0.4-0.5-0.7-1-1.101-1.4c-1.601-0.8-1.601-1.8-2.5-3.198
	c0.8-1.7,1.699-3.4,2.5-5c-2.301-0.602-3.7-0.5-4.7-2.5c-0.5-2.2,0.7-3.7,1.101-6.102c-1.601-1.3-3.101-2.6-4.7-4
	c-1.6-4,1.7-13.5,4.7-14.8c3.399-1.4,6.7,1.9,10.101,2.5c-1.101-3.7-5-5.1-7.2-7.9c0.2-3.3,8.601-13.3,10.399-16.6
	c0.2-1.6,0.5-3.1,0.7-4.7c1.7-1.3,3.399-2.6,5-4c0.899-2.5-0.101-5.1,0.399-7.2c2.899-1.1,5-1.698,9-1.398
	c-0.101-3.3,0.301-4.8,1.399-6.5c2.601,0.2,4.301,0.5,6.101-0.4c2.801-7.2,10.2-7.898,11.899-11.2c-0.1-2.198-0.199-4.3-0.399-6.5
	c1.2-4,4.399-10.5,6.801-13.698c1.699,0.1,3.4,0.199,5,0.399c1-3.7,2.899-7.2,5-9.7c-4.2-10.398,14.399-23.198,23-25.6
	c4.3-1.2,6.2,1.9,9.4,2.5c4-3.6,10.101-12.3,16.199-7.9c0.2-0.1,0.5-0.198,0.7-0.398c-0.2-3.4-2.101-7.3-0.399-9.7
	c4.899-10,21.699-13.9,30.199-20.5c3.601-4,7.2-7.9,10.801-11.9c5.699-4.5,11.8-7.3,16.199-13c4.4-6,8.9-12,13.301-18
	c7-5.6,15.601-10,21.199-16.898c2.801-3.801,5.5-7.7,8.301-11.5c4.5-3.301,9.5-4.7,12.601-9.4c2.5-3.8,0.699-7.3,1.8-12.2
	c1.899-8.6,6.3-17,8.601-24.5c3.101-9.699,2.699-21.398,6.8-30.199c2.2-4.801,12.5-5.601,16.601-8.601
	c7.2-5.399,12.899-16.7,16.601-25.6c1.8-6.5,3.601-13,5.399-19.4c1.399-8.2-2.7-16.7-0.399-23c0.7-1.8,19.6-20.8,21.199-21.6
	c1.8-0.9,4-0.2,5.8-1.102c-0.1-1.398-0.199-2.898-0.399-4.3c0.2-0.5,0.5-1,0.7-1.399c7.101-1.899,18-1.101,24.1,0.399
	c0.101,0.8,0.2,1.7,0.4,2.5c-3.399,2.2-9.8,2.7-14,4c-2.399,6.101-2.7,14.5,4.7,16.2c3.899,0.9,5.399-1.7,8.6-0.4
	c0.9,4.4,4.4,4.7,5.8,8.301c0.399,1-1.7,17.301-2.2,18.399c0.5,1.101,6.9,13.2,7.2,13.3c6.601,2.301,8.101-4.398,10.8-6.1
	c2.601-0.7,5.3-1.4,7.899-2.2c2.301-2.3,4.601-4.6,6.801-6.8c2.5-0.7,5-1.4,7.6-2.2c0.601-3,0.4-5.5,2.2-7.899
	c6-1.699,9.899-5.101,15.101-7.199c0.7,0.399,1.399,0.7,2.2,1.1c-0.101,0.7-0.2,1.4-0.4,2.2c-1.8,3.3-7.8,4.8-10.8,6.8
	c0,0.4,0,0.7,0,1.101c0.101,0.1,0.2,0.199,0.399,0.399c1.399-0.899,2.601-2.3,4.301-1.8c0.8,0.4,1.699,0.7,2.5,1.1
	c0,6.801-3.2,5.4-6.101,8.601c-2,2.301-3,6.7-4.7,9c0,0.399,0,0.7,0,1.101c0.101,0,0.2,0,0.4,0c3.301-1.399,4.801-4.101,7.601-5.399
	c2.399-0.101,4.8-0.2,7.2-0.399c0-0.101,0-0.2,0-0.4c-1.7-0.699-3.399-1.399-5-2.199c0-2.301,0.3-2.7,1.101-4c2-0.5,4.1-1,6.1-1.399
	c0-0.4,0-0.7,0-1.101c-2-1.101-4-2.2-5.399-4c0.101-0.7,0.2-1.399,0.399-2.2c0.4-0.5,0.7-1,1.101-1.399
	c2.301,0.101,4.601,0.2,6.801,0.399c1.1-1.101,2.199-2.199,3.199-3.199c0.7,0,1.4,0,2.2,0c1.899,2.3,8.2,3.9,7.601,7.199
	c-0.4,2-8.2,12.899-9.7,13.7c-2.8,1.101-5.5,2.199-8.3,3.199c0.1,0.2,0.199,0.5,0.399,0.7c11.3-0.101,19.5-14.5,25.899-11.2
	c0.101,0.801,0.2,1.7,0.399,2.5c-1.8,2.5-6.199,2.801-7.601,5.4c-1.5,2.8-1.199,5.1-3.6,6.8c-4.4,3.101-8.4,3.3-11.9,7.2
	c0.4,4.5,3.5,4,4.7,7.199c1.399,3.601-0.101,8.5,0.399,12.2c0.7,4.899,4.801,7.1,5.4,12.601c-2,3.399-3.5,7.1-6.5,9.399
	c-1.6,1.199-3.1,2.399-4.699,3.601c-1.301,3.199-2.601,6.5-4,9.7c-1.399,1.601-2.899,3.101-4.301,4.7
	c-0.899,2.8,0.8,4.8-0.699,7.199c-2.601,2.4-5.301,4.801-7.899,7.2c-2,2.7-1.4,6.7-2.9,10.101c-1.1,1.399-2.199,2.899-3.199,4.3
	c-15.899-0.899-15.301,29.301-22.7,39.2c-2.399,3.3-4.5,1.601-7.899,3.199c-1.3,1.4-2.601,2.9-4,4.301
	c-9.8,5.699-14.899,6.399-19.399,17.601c-2.7,6.5,7.3,15.8,5.4,24.5c-1,0.699-1.899,1.399-2.899,2.199c0.601,0,1.2,0,1.8,0
	c4.301-1.8,17.801-4.101,20.2,0c4,5.801-2.101,17.101-5,20.2c-1.2-0.101-2.399-0.2-3.601-0.399c-0.5-1.4-1-2.9-1.399-4.301
	c-1.399,0.5-0.7,0-1.399,1.101c-0.7,1.8-0.801,3.399-1.801,4.7c-4.101-0.101-6.101-2.801-8.601-4.7
	c-5.6,0.899-11.899,3.899-17.3,1.101c0.101-2.301,0.5-2.301,1.399-3.601c1.601-0.5,3.101-1,4.7-1.399c0-0.399,0-0.7,0-1.101
	c-0.601-0.8-1.2-1.7-1.801-2.5c-1.3-0.2-2.6-0.5-4-0.7c-5,2.5-5,7.7-9,10.801c-3.5,1.899-7,3.8-10.399,5.8
	c-4.601,3.2-8.999,7.5-13.699,11.2c-3,4-6,7.899-9,11.899c-8.899,7.2-15.3,2.5-21.2,15.5c-0.399,0.899-5.8,19.101-5.8,19.101
	c0.101,7.5,3.8,15.399,1.8,23.8c-2.399,10.101-10.8,14.7-14,23.801c0.101,6.1,0.2,12.2,0.4,18.4c-1.801,7.699-6.5,9.8-10.4,14.8
	c-1.3,2.601-3,13.5-2.199,14.801c1.5-0.601,5.5-3.7,7.899-2.5c2.3,1.2,0.3,5.601-0.7,6.8c-5.6,7-15.899,5.801-24.1,10.399
	c-7,3.899-2.801,13.5-14.801,15.101c-0.699,2.5-1.399,5-2.199,7.601c-1.601,1.101-3.101,2.2-4.7,3.2c-0.5,0.899-3.899,10.6-4,10.8
	c-0.3,2,0.8,4.3-0.399,6.101c-1.399,2.1-4.101,1.699-6.101,3.199c-1,1.4-1.899,2.9-2.899,4.3c-3.7,1.1-7.399,2.199-11.2,3.199
	c-1,1-1.899,1.899-2.899,2.899c-3.8,1.7-8.101-0.899-12.601,0.4c-2.399,1.1-4.8,2.199-7.199,3.2c-5,0.2-7.7-5.899-11.5-7.199
	c-8.7-2.899-25.101,9.699-28.4,3.199c-0.699-2.899,0.4-7.399,1.102-10.399c-1.7-0.3-3.102-0.5-4-1.8c0-1.801,0-3.601,0-5.399
	c-12.102-6.2-10.602,1.6-18.4,5.399c-3.2-0.2-5.5-1.2-7.6-2.5c-1-3.899-1.602-13-4.7-15.101c-17.601-6.7-14.601,6.5-22,9
	c-12.9,4.399-29.8-1.801-35.3-7.899c0.1-0.801,0.199-1.7,0.398-2.5C14.596,954,17.5,953.9,18.1,950H18.096z"/>
<path fill="#A3A3A3" d="M400.795,504.7c3.5,0,5.199,1.1,7.199,2.5c0,0.7,0,1.399,0,2.2c-1.3,2.6-3.699,3.3-5,5.398
	c-1.899,2.9-1.6,5.3-4,7.601c-0.6,0-1.199,0-1.8,0c-0.2-0.2-0.5-0.5-0.7-0.7c0.2-5.2,0.9-13,3.601-16.602
	c0.2-0.098,0.505-0.298,0.705-0.397H400.795z"/>
<path fill="#A3A3A3" d="M464.495,511.9c7.101-0.2,2.7,8.699,1.101,11.5c-3.101,0.5-3.8,0-5.399-1.802
	c-0.001-4.898,2.204-6.898,4.305-9.698H464.495z"/>
<path fill="#A3A3A3" d="M83.596,995.8c6.6,1.4,27,14.7,14.8,20.2c0.2,0.4,0.5,0.7,0.7,1.1c2.3-0.398,4.6-0.698,6.8-1.1
	c0.399,0.2,0.7,0.5,1.101,0.7c1.5,5.7-1.101,13.1-5,15.5c-1.899,0.5-3.801,1-5.801,1.398c-1.699,1.2-3.3,4.9-4.699,6.5
	c-4.301,0-8.301,0-11.5-1.1c-3.899,3.2-6.101,11.9-13,6.8c0-0.1,0-0.199,0-0.398c0.5-10,10.699-20.4,13.3-29.5
	c2.2-7.7-6.899-7.102,0.399-19.102c0.999-0.299,2.005-0.699,2.904-0.999H83.596z"/>
<path fill="#A3A3A3" d="M72.496,1002.2c0.699,0.1,1.399,0.2,2.199,0.398c1.5,0.7,1.7,1.101,1.801,3.2c-1.899,1.2-3.2,1.2-5,0
	c-0.1-2.099,0.205-2.499,1.005-3.599H72.496z"/>
<path fill="#A3A3A3" d="M63.496,1036.1c0.8,0.101,1.699,0.2,2.5,0.4c1.199,2.5,1.1,4.5-0.399,6.8c-2.4,0.602-2.801,0.5-4.7-0.7
	c-0.101-0.5-0.2-1-0.399-1.398c0.899-2.602,1.403-3.602,3.004-5.102H63.496z"/>
</svg>
